<svg id="Layer_1" data-name="Layer 1" xmlns="http://www.w3.org/2000/svg" xmlns:xlink="http://www.w3.org/1999/xlink" viewBox="0 0 334.33 216.17"><defs><style>.cls-1{fill:url(#linear-gradient);}.cls-2{fill:url(#linear-gradient-2);}.cls-3{fill:url(#linear-gradient-3);}.cls-4{fill:url(#linear-gradient-4);}.cls-5,.cls-6{fill:none;stroke-linecap:round;stroke-linejoin:round;stroke-width:4px;}.cls-5{stroke:url(#linear-gradient-5);}.cls-6{stroke:url(#linear-gradient-6);}</style><linearGradient id="linear-gradient" x1="62.79" y1="108.09" x2="144.28" y2="108.09" gradientTransform="matrix(-1, 0, 0, 1, 178.94, 0)" gradientUnits="userSpaceOnUse"><stop offset="0" stop-color="#c8a84c"/><stop offset="0.12" stop-color="#deba54"/><stop offset="0.2" stop-color="#e7c157"/><stop offset="0.38" stop-color="#d1af4f"/><stop offset="0.5" stop-color="#c8a84c"/><stop offset="0.7" stop-color="#e7c157"/><stop offset="0.82" stop-color="#deba54"/><stop offset="1" stop-color="#c8a84c"/></linearGradient><linearGradient id="linear-gradient-2" x1="141.85" y1="98.15" x2="155.95" y2="98.15" gradientTransform="matrix(1, 0, 0, 1, 0, 0)" xlink:href="#linear-gradient"/><linearGradient id="linear-gradient-3" x1="406.55" y1="98.15" x2="420.65" y2="98.15" gradientTransform="matrix(-1, 0, 0, 1, 596.24, 0)" xlink:href="#linear-gradient"/><linearGradient id="linear-gradient-4" x1="-400.84" y1="108.09" x2="-319.35" y2="108.09" gradientTransform="translate(619.01)" xlink:href="#linear-gradient"/><linearGradient id="linear-gradient-5" x1="197.55" y1="148.24" x2="139.85" y2="148.24" gradientTransform="matrix(1, 0, 0, 1, 0, 0)" xlink:href="#linear-gradient"/><linearGradient id="linear-gradient-6" x1="214.11" y1="148.1" x2="120.22" y2="148.1" gradientTransform="matrix(1, 0, 0, 1, 0, 0)" xlink:href="#linear-gradient"/></defs><path class="cls-1" d="M91.3,72.13a2.51,2.51,0,1,0-2.51-2.51A2.51,2.51,0,0,0,91.3,72.13ZM34.77,149.57a3.56,3.56,0,0,0,.52,1.33,5.78,5.78,0,0,0,.9,3,4,4,0,0,0,3.42,1.68,9.5,9.5,0,0,0,3.87-1c7.28-3.31,15.31-10.35,18.3-20.6,1.44-1.41,3-2.95,4.59-4.59l.2,9a1.76,1.76,0,0,0,1.79,1.7c1.14,0,3.88-.1,7.12-.27a42.32,42.32,0,0,0-.1,10,.14.14,0,0,1,0,.06A2.09,2.09,0,0,1,75,150a22.72,22.72,0,0,1-3-.75c-4.45-1.28-10-2.87-13.11.26a2.61,2.61,0,0,0,3.7,3.69c.94-.94,6.23.58,8,1.08a18.27,18.27,0,0,0,4.43.95c2.41,0,6-1.82,8.08-3,3.26,1.46,11.72,4.58,19.28,1.55,2.4-1,4.38-1.16,5.71-.57a2.77,2.77,0,0,1,1.35,1.18,2.63,2.63,0,0,0,2.45,1.68,2.52,2.52,0,0,0,.93-.18,2.62,2.62,0,0,0,1.51-3.38,7.93,7.93,0,0,0-4.15-4.1c-2.68-1.17-6-1-9.74.52a14.54,14.54,0,0,1-6.66.84c.55-4.46-1.34-9.5-2.53-12.13a4.32,4.32,0,0,0,.61-.31c2.57-1.6,2.55-6.69,2.29-16.3-.15-5.52-.31-11.78.58-15.33a29.1,29.1,0,0,1,3.21-7.5c1.88-3.36,3.81-6.84,3.54-13.11-.07-1.69-.19-3.25-.29-4.61-.5-6.91-.48-8.57,3.19-9.55l.19-.07a9.5,9.5,0,0,1,3-.5,6.81,6.81,0,0,1,5.47,2.52,1.77,1.77,0,0,0,1.85.55,1.75,1.75,0,0,0,1.22-1.5,8,8,0,0,0-2-5.79c-2.36-2.61-6.37-3.72-12-3.28a32.89,32.89,0,0,0-12-2.74,17.56,17.56,0,0,0-2.87.23,4.41,4.41,0,0,0-.88-.08c-1.79,0-5.94,1-5.94,9.81,0,7.29-1.82,9-6.69,13.63-1,.91-2.08,2-3.27,3.15-5.53,5.53-12.26,15.81-18.2,24.89-1.82,2.78-3.54,5.41-5.05,7.62-5,7.3-8.61,17.94-10,22.56C35.25,144.71,34.34,147.29,34.77,149.57ZM87.44,102c2.87-5.28,5.36-11.2,4.57-13.1A2,2,0,0,0,90.1,87.6c-1.22,0-8-1.14-13.27-2.06,4.56-4.34,7.06-7.12,7.06-15.47,0-4,.91-6.32,2.45-6.32a1.57,1.57,0,0,1,.32,0,1.56,1.56,0,0,0,.83,0,14.21,14.21,0,0,1,2.6-.23,30.31,30.31,0,0,1,11,2.6,1.65,1.65,0,0,0,.9.16,16.81,16.81,0,0,1,7.2.61,11.94,11.94,0,0,0-1.6-.11,12.47,12.47,0,0,0-4.2.72c-6.5,1.77-6.15,6.54-5.67,13.14.09,1.34.2,2.87.27,4.51a18.1,18.1,0,0,1-.56,5.66,2,2,0,0,0-.26.24C97.1,91.21,93.21,95.63,87.44,102Zm3.23,19.13c.13,4.84.32,12.17-.72,13.3-1.11.68-5.39,1.24-10.31,1.63,2-10,6.8-20.3,11.2-28.26A103.51,103.51,0,0,0,90.67,121.12ZM79,139.6a85,85,0,0,0,8.81-1c1,2.05,2.93,6.78,2.49,10.62a27.77,27.77,0,0,1-6.1-2.24,2.64,2.64,0,0,0-2.62.07c-.87.54-1.88,1.09-2.85,1.58A39.61,39.61,0,0,1,79,139.6Zm-9.24-13.66,2.45-2.53c5.14-5.35,10.17-10.76,14.5-15.48-4.36,8.14-8.85,18.32-10.72,28.37-2,.12-4.1.21-6,.27Zm-.18-6.68,3.15-2.14,1.84-1.25q-2.25,2.38-4.55,4.78l-.37.39,0-1.57A1.52,1.52,0,0,0,69.61,119.26ZM62.88,128a30.77,30.77,0,0,0,.1-3.35l3.24-2,0,2C65.09,125.76,64,126.91,62.88,128Zm-19.62,7a70.28,70.28,0,0,1,6.81-13.7c1.53-2.25,3.26-4.89,5.09-7.68,5.56-8.49,12.47-19.06,17.74-24.33l.83-.82.14,0c1.22.22,10.59,1.91,14.67,2.4-1,3.6-6,14-9.31,17.27a101.13,101.13,0,0,1-8.43,6C60.39,121.3,50.16,128.5,43.26,135Zm-3.92,17.08c2.29-.66,6.59-3.23,15.73-11.68a31.11,31.11,0,0,1-13,11,6.18,6.18,0,0,1-2.43.7Zm-.42-3.57a19.8,19.8,0,0,1,.87-3.3.65.65,0,0,0,0-.13s.21-.75.58-1.93c3.73-5,11.49-11.27,19.08-16.8a27.79,27.79,0,0,1-.79,5.76C46,144.57,40.88,147.77,38.92,148.54Z"/><path class="cls-2" d="M154,135.58a2,2,0,0,1-2-2v-10a2,2,0,0,1-.87-1.64c0-2.56-5.15-9.78-8.81-14.09a2,2,0,0,1-.47-1.28V75.71c0-6.84.91-15,5.23-15S156,69.8,156,73.07V133.6A2,2,0,0,1,154,135.58Zm-8.17-29.68a81.62,81.62,0,0,1,6.19,8.45V73.07c0-2.06-3.05-7.35-4.66-8.28-.82,1.39-1.53,6.3-1.53,10.92Z"/><path class="cls-3" d="M175.59,133.6V73.07c0-3.27,4.41-12.36,8.87-12.36s5.23,8.16,5.23,15v30.91a2,2,0,0,1-.47,1.28c-3.65,4.31-8.8,11.53-8.8,14.09a2,2,0,0,1-.87,1.64v10a2,2,0,0,1-4,0Zm10.14-57.89c0-4.62-.7-9.53-1.53-10.92-1.6.93-4.65,6.22-4.65,8.28v41.28a81.82,81.82,0,0,1,6.18-8.45Z"/><path class="cls-4" d="M243,72.13a2.51,2.51,0,1,1,2.52-2.51A2.51,2.51,0,0,1,243,72.13Zm56.54,77.44a3.56,3.56,0,0,1-.52,1.33,5.78,5.78,0,0,1-.9,3,4,4,0,0,1-3.42,1.68,9.58,9.58,0,0,1-3.88-1c-7.28-3.31-15.3-10.35-18.29-20.6-1.44-1.41-3-2.95-4.6-4.59l-.2,9a1.75,1.75,0,0,1-1.78,1.7c-1.14,0-3.88-.1-7.13-.27a41.8,41.8,0,0,1,.1,10s0,0,0,.06a1.89,1.89,0,0,0,.38.05,22.67,22.67,0,0,0,3-.75c4.45-1.28,10-2.87,13.12.26a2.61,2.61,0,0,1-3.7,3.69c-.95-.94-6.23.58-8,1.08a18.21,18.21,0,0,1-4.42.95c-2.41,0-6-1.82-8.09-3-3.26,1.46-11.71,4.58-19.28,1.55-2.4-1-4.37-1.16-5.7-.57a2.89,2.89,0,0,0-1.36,1.18A2.61,2.61,0,0,1,220,152.5a7.94,7.94,0,0,1,4.14-4.1c2.68-1.17,6-1,9.74.52a14.6,14.6,0,0,0,6.67.84c-.56-4.46,1.34-9.5,2.53-12.13a5.11,5.11,0,0,1-.62-.31c-2.56-1.6-2.54-6.69-2.29-16.3.15-5.52.32-11.78-.57-15.33a28.76,28.76,0,0,0-3.22-7.5c-1.87-3.36-3.81-6.84-3.53-13.11.07-1.69.18-3.25.28-4.61.5-6.91.48-8.57-3.18-9.55l-.2-.07a9.35,9.35,0,0,0-3-.5,6.8,6.8,0,0,0-5.46,2.52,1.77,1.77,0,0,1-1.85.55,1.75,1.75,0,0,1-1.23-1.5,8.06,8.06,0,0,1,2.05-5.79c2.36-2.61,6.38-3.72,11.95-3.28a33,33,0,0,1,12-2.74,17.69,17.69,0,0,1,2.88.23,4.26,4.26,0,0,1,.88-.08c1.78,0,5.94,1,5.94,9.81,0,7.29,1.82,9,6.69,13.63,1,.91,2.07,2,3.27,3.15,5.52,5.53,12.26,15.81,18.2,24.89,1.82,2.78,3.54,5.41,5.05,7.62,5,7.3,8.6,17.94,10,22.56C299.07,144.71,300,147.29,299.56,149.57ZM246.88,102c-2.86-5.28-5.35-11.2-4.56-13.1a2,2,0,0,1,1.91-1.29c1.21,0,8-1.14,13.26-2.06-4.55-4.34-7.05-7.12-7.05-15.47,0-4-.92-6.32-2.45-6.32a1.57,1.57,0,0,0-.32,0,1.56,1.56,0,0,1-.83,0,14.32,14.32,0,0,0-2.61-.23,30.22,30.22,0,0,0-11,2.6,1.68,1.68,0,0,1-.91.16,16.75,16.75,0,0,0-7.19.61,11.9,11.9,0,0,1,1.59-.11,12.55,12.55,0,0,1,4.21.72c6.5,1.77,6.15,6.54,5.67,13.14-.1,1.34-.21,2.87-.28,4.51a17.78,17.78,0,0,0,.57,5.66,2,2,0,0,1,.26.24C237.23,91.21,241.11,95.63,246.88,102Zm-3.22,19.13c-.13,4.84-.33,12.17.71,13.3,1.12.68,5.4,1.24,10.32,1.63-2.05-10-6.81-20.3-11.2-28.26A105.35,105.35,0,0,1,243.66,121.12Zm11.63,18.48a84.79,84.79,0,0,1-8.8-1c-1,2.05-2.94,6.78-2.5,10.62A28.24,28.24,0,0,0,250.1,147a2.64,2.64,0,0,1,2.62.07c.86.54,1.87,1.09,2.85,1.58A39.63,39.63,0,0,0,255.29,139.6Zm9.25-13.66-2.45-2.53c-5.14-5.35-10.18-10.76-14.51-15.48,4.37,8.14,8.86,18.32,10.72,28.37,2.05.12,4.11.21,6,.27Zm.18-6.68-3.16-2.14-1.83-1.25c1.49,1.59,3,3.18,4.54,4.78l.38.39,0-1.57C264.69,119.4,264.71,119.33,264.72,119.26Zm6.73,8.73a30.77,30.77,0,0,1-.1-3.35l-3.25-2,0,2C269.24,125.76,270.37,126.91,271.45,128Zm19.62,7a70.85,70.85,0,0,0-6.81-13.7c-1.53-2.25-3.26-4.89-5.09-7.68-5.56-8.49-12.48-19.06-17.75-24.33l-.82-.82-.14,0c-1.23.22-10.6,1.91-14.67,2.4,1,3.6,6,14,9.3,17.27a103,103,0,0,0,8.43,6C273.94,121.3,284.16,128.5,291.07,135ZM295,152.11c-2.29-.66-6.59-3.23-15.73-11.68a31.14,31.14,0,0,0,13,11,6.25,6.25,0,0,0,2.44.7Zm.41-3.57a18.87,18.87,0,0,0-.87-3.3l0-.13s-.21-.75-.58-1.93c-3.72-5-11.48-11.27-19.07-16.8a27.13,27.13,0,0,0,.79,5.76C288.34,144.57,293.44,147.77,295.4,148.54Z"/><rect class="cls-5" x="141.85" y="140.43" width="53.7" height="15.63"/><rect class="cls-6" x="122.22" y="140.15" width="89.9" height="15.9"/></svg>